<svg id="Layer_1" data-name="Layer 1" xmlns="http://www.w3.org/2000/svg" viewBox="0 0 513.19 536.63"><title>todo</title><rect x="87.5" y="61.83" width="54.67" height="218.67" rx="15.33" ry="15.33" style="fill:#c1272d;stroke:#000;stroke-miterlimit:10;stroke-width:3px"/><rect x="1.5" y="1.5" width="241" height="68.33" rx="12.83" ry="12.83" style="fill:#c1272d;stroke:#000;stroke-miterlimit:10;stroke-width:3px"/><path d="M569.68,421.17a62.92,62.92,0,1,0,62.92,62.92A62.92,62.92,0,0,0,569.68,421.17Zm0,93.25A30.34,30.34,0,1,1,600,484.08,30.34,30.34,0,0,1,569.68,514.42Z" transform="translate(-297.5 -266.5)" style="fill:#f15a24;stroke:#000;stroke-miterlimit:10;stroke-width:3px"/><path d="M634.67,612c-19-24.6-51.24-33.14-54.67-34-7.14-1.8-19.15-3.84-28-5.33-2.68-.45-10.67-1.48-26.67-3.33-5.81-.67-9.68-1.07-13,1.33-1.12.81-4.13,3.35-5.67,13.33-1.09,7.08-.21,10.47,0,18.67,0.15,6,.1,24.46,0,61.33-0.07,25-.37,36.56-0.67,82s-0.08,48.57,3.33,51.33c22.56,18.24,124.24-31,139.33-108.67C650.16,681,657.76,641.88,634.67,612Zm-92,126c-5.49-3.16-2.88-11.34-2.67-52.67,0.27-50.72-3.54-61.14,3.33-65.33,14.1-8.6,60.3,16.83,63.33,52.67C610.09,713.12,556.74,746.09,542.67,738Z" transform="translate(-297.5 -266.5)" style="fill:#c1272d;stroke:#000;stroke-miterlimit:10;stroke-width:3px"/><path d="M738.33,660.41a70.36,70.36,0,1,0,70.36,70.36A70.36,70.36,0,0,0,738.33,660.41Zm0,100.77a30.41,30.41,0,1,1,30.41-30.41A30.41,30.41,0,0,1,738.33,761.19Z" transform="translate(-297.5 -266.5)" style="fill:#f15a24;stroke:#000;stroke-miterlimit:10;stroke-width:4px"/></svg>